<svg xmlns="http://www.w3.org/2000/svg" width="21.5" height="17.864" viewBox="0 0 21.5 17.864"><defs><style>.a{fill:none;stroke:#fff;stroke-linecap:round;stroke-linejoin:round;stroke-width:1.5px;}</style></defs><g transform="translate(-0.75 -3.75)"><path class="a" d="M21.5,19.045a1.818,1.818,0,0,1-1.818,1.818H3.318A1.818,1.818,0,0,1,1.5,19.045v-10A1.818,1.818,0,0,1,3.318,7.227H6.955L8.773,4.5h5.455l1.818,2.727h3.636A1.818,1.818,0,0,1,21.5,9.045Z"/><path class="a" d="M19.273,17.136A3.636,3.636,0,1,1,15.636,13.5,3.636,3.636,0,0,1,19.273,17.136Z" transform="translate(-4.136 -3.545)"/></g></svg>