<svg xmlns="http://www.w3.org/2000/svg" width="26.414" height="23.441" viewBox="0 0 26.414 23.441"><defs><style>.a{fill:none;stroke:#c5c7c5;stroke-linecap:round;stroke-linejoin:round;stroke-width:2px;}</style></defs><g transform="translate(-8.843 -11.183)"><g transform="translate(9.843 12.597)"><path class="a" d="M20.52,4.8a5.063,5.063,0,0,0-1.258-.3,5.729,5.729,0,0,0-4.637,1.76L13.493,7.389,12.36,6.256a5.879,5.879,0,1,0-8.315,8.315L5.178,15.7l8.315,8.315L21.807,15.7l1.133-1.133a6.018,6.018,0,0,0,1.63-3.43,6.888,6.888,0,0,0,.053-1.416" transform="translate(-2.323 -2.992)"/><path class="a" d="M24.572,9,11.8,21.768,6,15.964" transform="translate(-0.572 -9)"/></g></g></svg>