<svg xmlns="http://www.w3.org/2000/svg" width="17.426" height="15.381" viewBox="0 0 17.426 15.381"><defs><style>.a{fill:none;stroke:#fff;stroke-linecap:round;stroke-linejoin:round;stroke-width:1.5px;}</style></defs><g transform="translate(-9.093 -11.472)"><g transform="translate(8.665 16.265)"><path class="a" d="M13.53,4.658a3.118,3.118,0,0,0-.775-.184A3.528,3.528,0,0,0,9.9,5.558l-.7.7-.7-.7a3.621,3.621,0,1,0-5.121,5.121l.7.7L9.2,16.5l5.121-5.121.7-.7a3.706,3.706,0,0,0,1-2.113,4.242,4.242,0,0,0,.033-.872" transform="translate(-1.145 -6.66)"/><path class="a" d="M18.615,9,9.942,17.673,6,13.731" transform="translate(-1.822 -12.733)"/></g></g></svg>