<svg xmlns="http://www.w3.org/2000/svg" width="42.413" height="37.452" viewBox="0 0 42.413 37.452"><defs><style>.a{fill:none;stroke:#26235d;stroke-linecap:round;stroke-linejoin:round;stroke-width:2px;}</style></defs><g transform="translate(-8.843 -11.183)"><g transform="translate(9.843 12.597)"><path class="a" d="M33.543,5.05a8.686,8.686,0,0,0-2.159-.512c-1.87-.421-5.42.483-7.954,3.019L21.486,9.5,19.542,7.557A10.087,10.087,0,1,0,5.277,21.822l1.944,1.944L21.486,38.03,35.751,23.765l1.944-1.944a10.325,10.325,0,0,0,2.8-5.885,11.817,11.817,0,0,0,.091-2.43" transform="translate(-2.323 -2.992)"/><path class="a" d="M36.828,9,15.634,30.195,6,20.561" transform="translate(3.171 -9)"/></g></g></svg>