<svg xmlns="http://www.w3.org/2000/svg" xmlns:xlink="http://www.w3.org/1999/xlink" width="118" height="118" viewBox="0 0 118 118"><defs><style>.a{fill:url(#a);}.b{isolation:isolate;}.c{fill:#fff;}.d{clip-path:url(#d);}.e,.f{stroke:none;}.f{fill:#fff;}.g{filter:url(#f);}.h{filter:url(#b);}</style><linearGradient id="a" x1="0.5" x2="0.5" y2="1" gradientUnits="objectBoundingBox"><stop offset="0" stop-color="#26235d"/><stop offset="1" stop-color="#de1b54"/></linearGradient><filter id="b" x="0" y="0" width="118" height="118" filterUnits="userSpaceOnUse"><feOffset dy="3" input="SourceAlpha"/><feGaussianBlur stdDeviation="9" result="c"/><feFlood flood-opacity="0.302"/><feComposite operator="in" in2="c"/><feComposite in="SourceGraphic"/></filter><clipPath id="d"><path class="a" d="M-.04-.008A35.685,35.685,0,0,0,14.691,3.747c7.665,0,8.349-4.615,16.421-4.531S40.4,3.747,48.384,3.747A30.15,30.15,0,0,0,62.567-.008s2.36,31.391-1.927,35.4S13.406,40.7,4.051,36.667-.04-.008-.04-.008Z" transform="translate(32 198)"/></clipPath><filter id="f" x="1" y="0" width="116" height="117" filterUnits="userSpaceOnUse"><feOffset dy="3" input="SourceAlpha"/><feGaussianBlur stdDeviation="9" result="g"/><feFlood flood-opacity="0.302"/><feComposite operator="in" in2="g"/><feComposite in="SourceGraphic"/></filter></defs><g transform="translate(26.269 24)"><g class="b" transform="translate(-31.269 -172)"><g class="h" transform="matrix(1, 0, 0, 1, 5, 148)"><g class="c" transform="translate(2372 -2712)"><path class="e" d="M -2290.99951171875 2799.5 L -2334.999755859375 2799.5 C -2340.238037109375 2799.5 -2344.49951171875 2795.23828125 -2344.49951171875 2790 L -2344.49951171875 2746 C -2344.49951171875 2740.76171875 -2340.238037109375 2736.5 -2334.999755859375 2736.5 L -2290.99951171875 2736.5 C -2285.76123046875 2736.5 -2281.499755859375 2740.76171875 -2281.499755859375 2746 L -2281.499755859375 2790 C -2281.499755859375 2795.23828125 -2285.76123046875 2799.5 -2290.99951171875 2799.5 Z M -2312.499755859375 2749.49951171875 C -2316.239501953125 2749.49951171875 -2319.755126953125 2750.955810546875 -2322.3994140625 2753.60009765625 C -2325.043701171875 2756.244384765625 -2326.499755859375 2759.760009765625 -2326.499755859375 2763.49951171875 C -2326.499755859375 2765.9443359375 -2326.117919921875 2767.5517578125 -2325.04052734375 2769.641845703125 C -2323.940185546875 2771.776611328125 -2322.0830078125 2774.422607421875 -2319.005859375 2778.80615234375 C -2317.660400390625 2780.72265625 -2316.13525390625 2782.89501953125 -2314.299072265625 2785.55712890625 C -2313.884765625 2786.15673828125 -2313.22900390625 2786.50048828125 -2312.499755859375 2786.50048828125 C -2311.781494140625 2786.50048828125 -2311.109130859375 2786.14794921875 -2310.701416015625 2785.557373046875 C -2308.883544921875 2782.92236328125 -2307.363525390625 2780.7568359375 -2306.0224609375 2778.846435546875 L -2305.99609375 2778.80908203125 C -2302.9169921875 2774.422607421875 -2301.0595703125 2771.776611328125 -2299.958984375 2769.641845703125 C -2298.881591796875 2767.5517578125 -2298.499755859375 2765.9443359375 -2298.499755859375 2763.49951171875 C -2298.499755859375 2759.760009765625 -2299.9560546875 2756.244384765625 -2302.600341796875 2753.60009765625 C -2305.24462890625 2750.955810546875 -2308.76025390625 2749.49951171875 -2312.499755859375 2749.49951171875 Z M -2312.499755859375 2768.62451171875 C -2315.32568359375 2768.62451171875 -2317.624755859375 2766.325439453125 -2317.624755859375 2763.49951171875 C -2317.624755859375 2760.673583984375 -2315.32568359375 2758.37451171875 -2312.499755859375 2758.37451171875 C -2309.673828125 2758.37451171875 -2307.374755859375 2760.673583984375 -2307.374755859375 2763.49951171875 C -2307.374755859375 2766.325439453125 -2309.673828125 2768.62451171875 -2312.499755859375 2768.62451171875 Z"/><path class="f" d="M -2290.99951171875 2799 C -2286.037109375 2799 -2281.999755859375 2794.962646484375 -2281.999755859375 2790 L -2281.999755859375 2746 C -2281.999755859375 2741.037353515625 -2286.037109375 2737 -2290.99951171875 2737 L -2334.999755859375 2737 C -2339.962158203125 2737 -2343.99951171875 2741.037353515625 -2343.99951171875 2746 L -2343.99951171875 2790 C -2343.99951171875 2794.962646484375 -2339.962158203125 2799 -2334.999755859375 2799 L -2290.99951171875 2799 M -2312.499755859375 2748.99951171875 C -2308.626708984375 2748.99951171875 -2304.9853515625 2750.5078125 -2302.246826171875 2753.24658203125 C -2299.508056640625 2755.985107421875 -2297.999755859375 2759.62646484375 -2297.999755859375 2763.49951171875 C -2297.999755859375 2766.001953125 -2298.410400390625 2767.728759765625 -2299.5146484375 2769.870849609375 C -2300.630859375 2772.0361328125 -2302.49560546875 2774.692626953125 -2305.587646484375 2779.097412109375 L -2305.613037109375 2779.133544921875 C -2306.95361328125 2781.04345703125 -2308.47314453125 2783.2080078125 -2310.2900390625 2785.841552734375 C -2310.791259765625 2786.567138671875 -2311.6171875 2787.00048828125 -2312.499755859375 2787.00048828125 C -2313.3955078125 2787.00048828125 -2314.201171875 2786.578125 -2314.710693359375 2785.841064453125 C -2316.545654296875 2783.1806640625 -2318.070068359375 2781.00927734375 -2319.415283203125 2779.09326171875 C -2322.50439453125 2774.6923828125 -2324.369140625 2772.035888671875 -2325.485107421875 2769.870849609375 C -2326.589111328125 2767.728759765625 -2326.999755859375 2766.001953125 -2326.999755859375 2763.49951171875 C -2326.999755859375 2759.62646484375 -2325.491455078125 2755.9853515625 -2322.7529296875 2753.24658203125 C -2320.01416015625 2750.5078125 -2316.373046875 2748.99951171875 -2312.499755859375 2748.99951171875 M -2312.499755859375 2768.12451171875 C -2309.949462890625 2768.12451171875 -2307.874755859375 2766.0498046875 -2307.874755859375 2763.49951171875 C -2307.874755859375 2760.94921875 -2309.949462890625 2758.87451171875 -2312.499755859375 2758.87451171875 C -2315.050048828125 2758.87451171875 -2317.124755859375 2760.94921875 -2317.124755859375 2763.49951171875 C -2317.124755859375 2766.0498046875 -2315.050048828125 2768.12451171875 -2312.499755859375 2768.12451171875 M -2290.99951171875 2800 L -2334.999755859375 2800 C -2340.513671875 2800 -2344.99951171875 2795.513916015625 -2344.99951171875 2790 L -2344.99951171875 2746 C -2344.99951171875 2740.486083984375 -2340.513671875 2736 -2334.999755859375 2736 L -2290.99951171875 2736 C -2285.485595703125 2736 -2280.999755859375 2740.486083984375 -2280.999755859375 2746 L -2280.999755859375 2790 C -2280.999755859375 2795.513916015625 -2285.485595703125 2800 -2290.99951171875 2800 Z M -2312.499755859375 2749.99951171875 C -2316.10595703125 2749.99951171875 -2319.49609375 2751.40380859375 -2322.0458984375 2753.95361328125 C -2324.595458984375 2756.50341796875 -2325.999755859375 2759.8935546875 -2325.999755859375 2763.49951171875 C -2325.999755859375 2767.97216796875 -2324.724609375 2769.788818359375 -2318.5966796875 2778.518798828125 C -2317.24951171875 2780.437744140625 -2315.722412109375 2782.613037109375 -2313.887451171875 2785.273193359375 C -2313.568115234375 2785.7353515625 -2313.062255859375 2786.00048828125 -2312.499755859375 2786.00048828125 C -2311.94580078125 2786.00048828125 -2311.42724609375 2785.728515625 -2311.11279296875 2785.273193359375 C -2309.302978515625 2782.64990234375 -2307.777587890625 2780.4765625 -2306.431640625 2778.55908203125 L -2306.40478515625 2778.52099609375 C -2300.275390625 2769.789306640625 -2298.999755859375 2767.972412109375 -2298.999755859375 2763.49951171875 C -2298.999755859375 2759.8935546875 -2300.404052734375 2756.50341796875 -2302.953857421875 2753.95361328125 C -2305.503662109375 2751.40380859375 -2308.893798828125 2749.99951171875 -2312.499755859375 2749.99951171875 Z M -2312.499755859375 2769.12451171875 C -2315.601318359375 2769.12451171875 -2318.124755859375 2766.60107421875 -2318.124755859375 2763.49951171875 C -2318.124755859375 2760.39794921875 -2315.601318359375 2757.87451171875 -2312.499755859375 2757.87451171875 C -2309.398193359375 2757.87451171875 -2306.874755859375 2760.39794921875 -2306.874755859375 2763.49951171875 C -2306.874755859375 2766.60107421875 -2309.398193359375 2769.12451171875 -2312.499755859375 2769.12451171875 Z"/></g></g><g class="d" transform="translate(0.786)"><g class="g" transform="matrix(1, 0, 0, 1, 4.21, 148)"><path class="a" d="M52.313,63H9.687a9.8,9.8,0,0,1-6.028-2.137l-.008-.006-.081-.062A8.819,8.819,0,0,1,1.019,57.6,10.247,10.247,0,0,1,0,53.156V9.844A9.778,9.778,0,0,1,9.687,0H52.313A9.778,9.778,0,0,1,62,9.844V53.156A9.778,9.778,0,0,1,52.313,63ZM31.484,13.781a12.889,12.889,0,0,0-9.248,3.892,13.311,13.311,0,0,0-3.83,9.4c0,4.4,1.235,6.191,7.172,14.785,1.3,1.889,2.784,4.03,4.562,6.649a1.606,1.606,0,0,0,1.344.716,1.626,1.626,0,0,0,1.344-.716c1.753-2.582,3.231-4.722,4.535-6.609l.026-.037c5.938-8.6,7.174-10.384,7.174-14.787a13.312,13.312,0,0,0-3.831-9.4A12.889,12.889,0,0,0,31.484,13.781Zm0,18.826a5.538,5.538,0,1,1,5.449-5.537A5.5,5.5,0,0,1,31.484,32.607Z" transform="translate(28 24)"/></g></g></g></g></svg>