<svg xmlns="http://www.w3.org/2000/svg" width="200" height="30.514" viewBox="0 0 200 30.514"><defs><style>.a{fill:#fff;}.b{opacity:0.5;}</style></defs><g transform="translate(-362.726 -243.747)"><g transform="translate(364.097 243.747)"><path class="a" d="M370.572,245.885l5.1,5.161a1.535,1.535,0,0,0,2.172-2.166l-4.417-4.557c-.587-.606-1.631-.069-2.281.166C370.559,244.7,369.987,245.293,370.572,245.885Z" transform="translate(-362.76 -243.695)"/><path class="a" d="M386.368,254.094a1.534,1.534,0,0,0,2.167-2.17l-6.76-6.67a5.6,5.6,0,0,0-2.629-1.152,13.085,13.085,0,0,0-1.766-.343c-.282-.033-.569-.013-.711.279a.544.544,0,0,0,.106.619Z" transform="translate(-361.654 -243.747)"/><path class="a" d="M388.531,267.587,368.09,247.145c-.583-.583-1.222-.087-1.684.37-.477.474-1.134,1.15-.484,1.8l20.441,20.442c.573.573,1.176.127,1.625-.312C388.476,268.965,389.208,268.263,388.531,267.587Z" transform="translate(-363.583 -243.196)"/><path class="a" d="M381.647,268.673l-5.1-5.161a1.535,1.535,0,0,0-2.172,2.166l4.417,4.558c.587.606,1.631.069,2.281-.167C381.66,269.857,382.232,269.266,381.647,268.673Z" transform="translate(-362.126 -240.35)"/><path class="a" d="M366.512,260.966a1.534,1.534,0,0,0-2.168,2.17l6.76,6.669a5.593,5.593,0,0,0,2.629,1.154,13.053,13.053,0,0,0,1.766.342c.282.033.569.014.711-.278a.543.543,0,0,0-.106-.619Z" transform="translate(-363.892 -240.798)"/></g><g transform="translate(362.726 251.63)"><g transform="translate(39.345)"><path class="a" d="M401.9,256.809c-1.85-.443-3.448-.827-3.448-2.248,0-1.564,1.756-2.12,3.4-2.12a9.594,9.594,0,0,1,3.155.528,1.069,1.069,0,0,0,.379.091.978.978,0,0,0,.954-.995.944.944,0,0,0-.661-.944,11.582,11.582,0,0,0-4.026-.669c-3.68,0-5.327,2.134-5.327,4.25,0,2.887,2.741,3.589,5.159,4.209,1.785.456,3.326.85,3.326,2.02,0,1.439-1.091,2.14-3.337,2.14a9.463,9.463,0,0,1-3.871-.807,1.1,1.1,0,0,0-.441-.092.976.976,0,0,0-.975.995,1.075,1.075,0,0,0,.654.961,12.085,12.085,0,0,0,4.813.971c3.1,0,5.266-1.665,5.266-4.05C406.918,258.013,404.253,257.374,401.9,256.809Z" transform="translate(-396.185 -250.451)"/><path class="a" d="M419.847,250.537a1.065,1.065,0,0,0-1.055,1.074v7.946a3.763,3.763,0,0,1-7.514,0v-7.946a1.089,1.089,0,0,0-1.075-1.074,1.066,1.066,0,0,0-1.055,1.074V259.5c0,3.668,2.961,5.587,5.887,5.587s5.886-1.919,5.886-5.587v-7.886A1.088,1.088,0,0,0,419.847,250.537Z" transform="translate(-393.904 -250.436)"/><path class="a" d="M433.6,250.622H423.66a.993.993,0,0,0-.995,1.014.973.973,0,0,0,.995.995h3.917v11.284a1.055,1.055,0,0,0,1.054,1.054,1.066,1.066,0,0,0,1.075-1.054V252.63h3.9a1,1,0,1,0,0-2.008Z" transform="translate(-391.527 -250.421)"/><path class="a" d="M446.81,250.537a1.065,1.065,0,0,0-1.054,1.074v5.154H438.5v-5.154a1.089,1.089,0,0,0-1.075-1.074,1.066,1.066,0,0,0-1.055,1.074V263.93a1.065,1.065,0,0,0,2.13,0v-5.155h7.254v5.155a1.055,1.055,0,0,0,1.054,1.054,1.067,1.067,0,0,0,1.076-1.054V251.611A1.089,1.089,0,0,0,446.81,250.537Z" transform="translate(-389.115 -250.436)"/><path class="a" d="M460.187,252.63a1,1,0,1,0,0-2.008H452.18a1.065,1.065,0,0,0-1.054,1.074v12.118a1.057,1.057,0,0,0,1.054,1.055h8.007a.994.994,0,0,0,1.015-.995,1,1,0,0,0-1.015-1.015h-6.931v-4.119h6.212a.994.994,0,0,0,1.015-.995,1,1,0,0,0-1.015-1.015h-6.212v-4.1Z" transform="translate(-386.52 -250.421)"/><path class="a" d="M474.979,254.831c0-2.675-2.036-4.209-5.586-4.209h-4.653a1.065,1.065,0,0,0-1.054,1.074v12.219a1.064,1.064,0,0,0,2.128,0v-4.477h3.977c2.6,0,2.939,2.072,2.939,3.877v.6a1.008,1.008,0,0,0,1.075,1.054,1.055,1.055,0,0,0,1.054-1.054V263c0-.888-.167-3.7-2.2-4.564A3.868,3.868,0,0,0,474.979,254.831Zm-2.13.139c0,1.529-1.336,2.44-3.577,2.44h-3.457V252.65h3.357C472.432,252.65,472.85,253.89,472.85,254.969Z" transform="translate(-384.31 -250.421)"/><path class="a" d="M486.3,262.755h-6.372V251.611a1.089,1.089,0,0,0-1.075-1.074,1.066,1.066,0,0,0-1.055,1.074V263.47a1.416,1.416,0,0,0,1.415,1.413H486.3a1.067,1.067,0,0,0,1.075-1.055A1.09,1.09,0,0,0,486.3,262.755Z" transform="translate(-381.827 -250.436)"/><path class="a" d="M496.942,251.451a1.409,1.409,0,0,0-1.3-.914h-.2a1.41,1.41,0,0,0-1.3.914l-5.091,12.018a1.21,1.21,0,0,0-.112.461,1.02,1.02,0,0,0,1.054,1.054,1.071,1.071,0,0,0,1-.654l1.257-3.02h6.58l1.259,3.022a1.07,1.07,0,0,0,1,.651,1.02,1.02,0,0,0,1.054-1.054,1.18,1.18,0,0,0-.112-.461ZM498,259.34h-4.924l2.461-5.926Z" transform="translate(-379.868 -250.436)"/><path class="a" d="M515.195,250.537a1.066,1.066,0,0,0-1.055,1.074v10.282l-7.407-10.7a1.556,1.556,0,0,0-1.221-.659h-.26a1.466,1.466,0,0,0-1.453,1.473V263.93a1.055,1.055,0,0,0,1.054,1.054,1.066,1.066,0,0,0,1.075-1.054v-10.3l7.445,10.754a1.476,1.476,0,0,0,1.183.6h.24a1.465,1.465,0,0,0,1.473-1.453V251.611A1.088,1.088,0,0,0,515.195,250.537Z" transform="translate(-377.253 -250.436)"/><path class="a" d="M529.863,252.893a6.991,6.991,0,0,0-5.429-2.271h-4.013a1.065,1.065,0,0,0-1.054,1.074v12.118a1.056,1.056,0,0,0,1.054,1.055h4.013a6.986,6.986,0,0,0,5.429-2.279,7.514,7.514,0,0,0,0-9.7Zm-.334,4.852a4.939,4.939,0,0,1-5.315,5.114H521.5V252.63h2.719A4.94,4.94,0,0,1,529.529,257.745Z" transform="translate(-374.514 -250.421)"/></g><g class="b" transform="translate(0 0.778)"><path class="a" d="M379.462,251.152a10.633,10.633,0,0,0-1.826,0,.781.781,0,0,0-.7.454.752.752,0,0,0,.172.836L388.4,263.376a.7.7,0,0,0,.59.2.659.659,0,0,0,.644-.482,15.325,15.325,0,0,0,.522-1.689,1.077,1.077,0,0,0-.234-.96c-.025-.028-.049-.056-.076-.082l-9.1-8.644A2.075,2.075,0,0,0,379.462,251.152Z" transform="translate(-360.236 -251.113)"/><path class="a" d="M373.453,264.149a10.619,10.619,0,0,0,1.825,0,.777.777,0,0,0,.7-.454.753.753,0,0,0-.173-.836l-11.29-10.934a.7.7,0,0,0-.592-.2.659.659,0,0,0-.644.482,15.311,15.311,0,0,0-.522,1.689,1.074,1.074,0,0,0,.235.958,1.013,1.013,0,0,0,.076.083l9.1,8.643A2.06,2.06,0,0,0,373.453,264.149Z" transform="translate(-362.726 -251.005)"/></g></g><g transform="translate(559.194 251.831)"><g transform="translate(1.155 0.809)"><path class="a" d="M530.783,253.189V251.31h.756a.6.6,0,0,1,.426.155.538.538,0,0,1,.165.412.606.606,0,0,1-.04.226.5.5,0,0,1-.109.169.534.534,0,0,1-.158.107.541.541,0,0,1-.185.047l.508.763h-.276l-.476-.743h-.376v.743Zm.234-.951h.493a.379.379,0,0,0,.272-.1.372.372,0,0,0,0-.519.383.383,0,0,0-.273-.1h-.493Z" transform="translate(-530.783 -251.31)"/></g><path class="a" d="M531.568,254.155a1.766,1.766,0,1,1,1.765-1.767A1.769,1.769,0,0,1,531.568,254.155Zm0-3.3a1.532,1.532,0,1,0,1.531,1.531A1.534,1.534,0,0,0,531.568,250.856Z" transform="translate(-529.801 -250.622)"/></g></g></svg>