<svg xmlns="http://www.w3.org/2000/svg" width="24" height="24" viewBox="0 0 24 24"><defs><style>.a{fill:#fff;}</style></defs><path class="a" d="M-6661-966a11.922,11.922,0,0,1-8.486-3.514A11.918,11.918,0,0,1-6673-978a11.92,11.92,0,0,1,3.515-8.487A11.922,11.922,0,0,1-6661-990a11.919,11.919,0,0,1,8.485,3.514A11.924,11.924,0,0,1-6649-978a11.922,11.922,0,0,1-3.514,8.485A11.919,11.919,0,0,1-6661-966Zm-4-10a1,1,0,0,0-1,1,1,1,0,0,0,1,1h8a1,1,0,0,0,1-1,1,1,0,0,0-1-1Zm7.871-5.872a1.55,1.55,0,0,0-1.547,1.549,1.549,1.549,0,0,0,1.547,1.547,1.55,1.55,0,0,0,1.549-1.547A1.551,1.551,0,0,0-6657.129-981.871Zm-7.742,0a1.55,1.55,0,0,0-1.547,1.549,1.549,1.549,0,0,0,1.547,1.547,1.55,1.55,0,0,0,1.549-1.547A1.551,1.551,0,0,0-6664.872-981.871Z" transform="translate(6673 990)"/></svg>