<svg xmlns="http://www.w3.org/2000/svg" width="34.875" height="34.875" viewBox="0 0 34.875 34.875"><defs><style>.a{fill:#56c596;}</style></defs><path class="a" d="M17.438.563A17.438,17.438,0,1,0,34.875,18,17.434,17.434,0,0,0,17.438.563Zm5.625,11.813a2.25,2.25,0,1,1-2.25,2.25A2.248,2.248,0,0,1,23.063,12.375Zm-11.25,0a2.25,2.25,0,1,1-2.25,2.25A2.248,2.248,0,0,1,11.813,12.375Zm13.7,11.967a10.5,10.5,0,0,1-16.144,0A1.126,1.126,0,0,1,11.1,22.9a8.262,8.262,0,0,0,12.684,0A1.126,1.126,0,0,1,25.509,24.342Z" transform="translate(0 -0.563)"/></svg>