<svg xmlns="http://www.w3.org/2000/svg" width="26" height="25.61" viewBox="0 0 26 25.61"><defs><style>.a,.b{fill:none;stroke:#c5c7c5;stroke-miterlimit:10;stroke-width:2px;}.b{stroke-linecap:round;stroke-linejoin:round;}</style></defs><g transform="translate(-14.6 -10)"><g transform="translate(24.622 11)"><path class="a" d="M44.391,16.782a2.891,2.891,0,1,1,2.891-2.891,2.884,2.884,0,0,1-2.891,2.891" transform="translate(-41.5 -11)"/></g><g transform="translate(15.6 18.28)"><g transform="translate(19.228 0)"><path class="a" d="M70.8,31.9h3a1.784,1.784,0,0,1,1.776,1.776V35.7" transform="translate(-70.8 -31.9)"/></g><g transform="translate(0 0)"><path class="a" d="M15.6,35.7v-2.02A1.784,1.784,0,0,1,17.376,31.9h3" transform="translate(-15.6 -31.9)"/></g></g><path class="b" d="M38.331,47.709,32.2,39.773V32.946A1.858,1.858,0,0,1,34.046,31.1h8.6A1.858,1.858,0,0,1,44.5,32.946v6.862Z" transform="translate(-10.818 -13.099)"/><path class="a" d="M25.043,21.586a2.543,2.543,0,1,1,2.543-2.543,2.535,2.535,0,0,1-2.543,2.543" transform="translate(-5.497 -4.584)"/><path class="a" d="M66.043,21.586a2.543,2.543,0,1,1,2.543-2.543,2.535,2.535,0,0,1-2.543,2.543" transform="translate(-30.215 -4.584)"/></g></svg>