<svg xmlns="http://www.w3.org/2000/svg" width="17.5" height="14.659" viewBox="0 0 17.5 14.659"><defs><style>.a{fill:none;stroke:#56c596;stroke-linecap:round;stroke-linejoin:round;stroke-width:1.5px;}</style></defs><g transform="translate(-0.75 -3.682)"><path class="a" d="M13.136,26.864V25.409A2.909,2.909,0,0,0,10.227,22.5H4.409A2.909,2.909,0,0,0,1.5,25.409v1.455" transform="translate(0 -9.273)"/><path class="a" d="M13.318,7.409A2.909,2.909,0,1,1,10.409,4.5a2.909,2.909,0,0,1,2.909,2.909Z" transform="translate(-3.091 0)"/><path class="a" d="M32.182,26.964V25.51A2.909,2.909,0,0,0,30,22.7" transform="translate(-14.682 -9.373)"/><path class="a" d="M24,4.7a2.909,2.909,0,0,1,0,5.636" transform="translate(-11.591 -0.1)"/></g></svg>